{
  "title": "Doug Stanhope - No Place Like Home.mp4",
  "uid": 15853044,
  "size": 1439778579,
  "categoryP": "video",
  "categoryS": "movies",
  "magnet": "?xt=urn:btih:1e282db344a84c0050fe50a87c7908a7922aed67&amp;dn=Doug+Stanhope+-+No+Place+Like+Home.mp4&amp;tr=udp%3A%2F%2Ftracker.leechers-paradise.org%3A6969&amp;tr=udp%3A%2F%2Fzer0day.ch%3A1337&amp;tr=udp%3A%2F%2Fopen.demonii.com%3A1337&amp;tr=udp%3A%2F%2Ftracker.coppersurfer.tk%3A6969&amp;tr=udp%3A%2F%2Fexodus.desync.com%3A6969",
  "seeders": 131,
  "leechers": 6,
  "uploader": "em-pathy",
  "files": 1,
  "time": 1474185044,
  "description": "http://www.dougstanhope.com/order-book/ Order Doug's Book Digging Up Mother: A Love Story  \nhttp://www.dougstanhope.com/store/ Buy Official Doug Stanhope Merchandise  \nhttp://www.dougstanhope.com/tour-dates/ See Doug in Your City\r\n\r\n\r\nproper rip by andymaq. upgrade to the one I put up earlier.\r\n\r\nGeneral\r\nComplete name                            : G:VideosDoug Stanhope - No Place Like Home.mp4\r\nFormat                                   : MPEG-4\r\nCodec ID                                 : M4V \r\nFile size                                : 1.34 GiB\r\nDuration                                 : 1h 11mn\r\nOverall bit rate mode                    : Variable\r\nOverall bit rate                         : 2 693 Kbps\r\nEncoded date                             : UTC 2016-09-16 20:14:28\r\nTagged date                              : UTC 2016-09-16 20:14:28\r\n\r\nVideo\r\nID                                       : 2\r\nFormat                                   : AVC\r\nFormat/Info                              : Advanced Video Codec\r\nFormat profile                           :   \r\nFormat settings, CABAC                   : No\r\nFormat settings, ReFrames                : 3 frames\r\nFormat settings, GOP                     : M=1, N=24\r\nCodec ID                                 : avc1\r\nCodec ID/Info                            : Advanced Video Coding\r\nDuration                                 : 1h 11mn\r\nBit rate                                 : 2 588 Kbps\r\nWidth                                    : 1 438 pixels\r\nHeight                                   : 898 pixels\r\nDisplay aspect ratio                     : 16:10\r\nFrame rate mode                          : Constant\r\nFrame rate                               : 30.000 fps\r\nStandard                                 : NTSC\r\nColor space                              : YUV\r\nChroma subsampling                       : 4:2:0\r\nBit depth                                : 8 bits\r\nScan type                                : Progressive\r\nBits/(Pixel*Frame)                       : 0.067\r\nStream size                              : 1.29 GiB (96%)\r\nLanguage                                 : English\r\nEncoded date                             : UTC 2016-09-16 20:14:28\r\nTagged date                              : UTC 2016-09-16 20:14:28\r\nColor range                              : Limited\r\n\r\nAudio\r\nID                                       : 1\r\nFormat                                   : AAC\r\nFormat/Info                              : Advanced Audio Codec\r\nFormat profile                           : LC\r\nCodec ID                                 : 40\r\nDuration                                 : 1h 11mn\r\nSource duration                          : 1h 11mn\r\nBit rate mode                            : Variable\r\nBit rate                                 : 96.0 Kbps\r\nMaximum bit rate                         : 181 Kbps\r\nChannel(s)                               : 2 channels\r\nChannel positions                        : Front: L R\r\nSampling rate                            : 44.1 KHz\r\nCompression mode                         : Lossy\r\nStream size                              : 49.8 MiB (4%)\r\nSource stream size                       : 49.8 MiB (4%)\r\nLanguage                                 : English\r\nEncoded date                             : UTC 2016-09-16 20:14:28\r\nTagged date                              : UTC 2016-09-16 20:14:28",
  "parsed": {
    "xt": "urn:btih:1e282db344a84c0050fe50a87c7908a7922aed67",
    "dn": "Doug Stanhope - No Place Like Home.mp4",
    "tr": [
      "udp://exodus.desync.com:6969",
      "udp://open.demonii.com:1337",
      "udp://tracker.coppersurfer.tk:6969",
      "udp://tracker.leechers-paradise.org:6969",
      "udp://zer0day.ch:1337"
    ],
    "infoHash": "1e282db344a84c0050fe50a87c7908a7922aed67",
    "infoHashBuffer": {
      "type": "Buffer",
      "data": [
        30,
        40,
        45,
        179,
        68,
        168,
        76,
        0,
        80,
        254,
        80,
        168,
        124,
        121,
        8,
        167,
        146,
        42,
        237,
        103
      ]
    },
    "name": "Doug Stanhope - No Place Like Home.mp4",
    "announce": [
      "udp://exodus.desync.com:6969",
      "udp://open.demonii.com:1337",
      "udp://tracker.coppersurfer.tk:6969",
      "udp://tracker.leechers-paradise.org:6969",
      "udp://zer0day.ch:1337"
    ],
    "urlList": []
  },
  "previous": 137,
  "peers": 100,
  "last_updated": "2016-12-24T19:05:24.676Z"
}